<?xml version="1.0" encoding="UTF-8" standalone="no"?>
<!DOCTYPE svg PUBLIC "-//W3C//DTD SVG 1.1//EN" "http://www.w3.org/Graphics/SVG/1.1/DTD/svg11.dtd">
<svg width="100%" height="100%" viewBox="0 0 500 500" version="1.1" xmlns="http://www.w3.org/2000/svg" xmlns:xlink="http://www.w3.org/1999/xlink" xml:space="preserve" style="fill-rule:evenodd;clip-rule:evenodd;stroke-linejoin:round;stroke-miterlimit:1.41421;">
    <g transform="matrix(0.752941,0,0,1.3226,-36.5003,-320.521)">
        <g transform="matrix(1.0625,0,0,0.783505,74.2582,91.1959)">
            <rect x="316" y="218" width="48" height="194" style="fill:rgb(65,140,255);"/>
        </g>
        <g transform="matrix(1.0625,0,0,0.302251,74.2582,286.057)">
            <rect x="316" y="218" width="48" height="194" style="fill:url(#_Linear1);"/>
        </g>
    </g>
    <g transform="matrix(4.89859e-17,-0.8,0.791753,4.84809e-17,-15.5903,317.2)">
        <path d="M364,218L316,218L316,412L364,412L364,218Z" style="fill:rgb(65,140,255);"/>
    </g>
    <g transform="matrix(0.752941,0,0,0.752941,-219.465,-126.094)">
        <g transform="matrix(1,0,0,1,-5,10)">
            <path d="M607.008,350L607.663,350.002L608.317,350.008L608.97,350.019L609.622,350.033L610.273,350.051L610.923,350.074L611.572,350.1L612.22,350.131L612.867,350.166L613.512,350.204L614.157,350.247L614.801,350.294L615.443,350.344L616.084,350.399C667.776,354.966 708.444,398.167 709.003,451L708.787,451L708.768,447.801L657.922,449.895C656.87,422.732 634.457,401 607.008,401C580.855,401 559.273,420.729 556.346,446.103C556.123,448.038 556.008,450.006 556.008,452C556.008,480.147 578.86,503 607.008,503L606.035,503L607.608,503C608.114,502.992 608.622,502.977 609.131,502.954C637.194,501.702 658.974,477.946 657.813,449.9L657.922,449.895L657.999,451L708.787,451C709.241,488.819 688.821,522.342 658.008,540.251L658.008,554L607.008,554L602.876,553.895L601.228,553.826L600.512,553.772L599.888,553.731C599.681,553.717 599.474,553.702 599.267,553.687L599.266,553.687L599.088,553.673L598.649,553.639L598.646,553.638L598.644,553.638L598.429,553.62L598.031,553.587L598.027,553.587L598.024,553.586L597.793,553.566L597.414,553.531L597.408,553.531L597.404,553.531L597.165,553.508L596.798,553.472L596.791,553.472L596.786,553.471L596.542,553.446L596.183,553.41L596.175,553.409L596.168,553.408L595.921,553.381L595.569,553.343L595.559,553.342L595.552,553.341L595.303,553.313L594.956,553.273L594.945,553.272L594.937,553.271L594.687,553.241L594.344,553.199L594.332,553.198L594.322,553.197L594.072,553.165L593.733,553.122L593.72,553.12L593.709,553.119L593.459,553.086L593.124,553.041L593.109,553.039L593.098,553.038L592.847,553.003L592.516,552.957L592.5,552.954L592.487,552.953L592.237,552.916L591.908,552.869L591.891,552.866L591.877,552.864L591.628,552.826L591.302,552.777L591.284,552.774L591.269,552.772L591.02,552.733L590.697,552.682L590.678,552.679L590.662,552.676L590.414,552.635L590.094,552.583L590.073,552.58L590.056,552.577L589.808,552.535L589.491,552.481L589.469,552.477L589.451,552.474L589.204,552.43L588.89,552.375L588.866,552.371L588.847,552.367L588.602,552.322L588.29,552.266L588.265,552.261L588.245,552.257L588,552.211L587.691,552.153L587.665,552.148L587.644,552.144L587.4,552.096L587.093,552.036L587.066,552.031L587.044,552.027L586.801,551.978L586.497,551.917L586.468,551.911L586.445,551.906L586.204,551.856L585.901,551.793L585.872,551.787L585.848,551.782L585.607,551.731L585.307,551.667L585.277,551.66L585.252,551.654L585.012,551.602L584.715,551.536L584.683,551.529L584.657,551.523L584.419,551.469L584.123,551.403L584.091,551.395L584.063,551.389L583.826,551.334L583.533,551.266L583.499,551.258L583.471,551.251L583.235,551.195L582.945,551.125L582.91,551.117L582.88,551.11L582.646,551.052L582.357,550.981L582.321,550.972L582.291,550.965L582.057,550.906L581.771,550.834L581.734,550.824L581.702,550.816L581.47,550.757L581.186,550.683L581.148,550.673L581.115,550.665L580.885,550.604L580.603,550.529L580.563,550.519L580.53,550.51L580.301,550.448L580.021,550.372L579.98,550.361L579.946,550.351L579.718,550.288L579.44,550.211L579.399,550.199L579.363,550.189L579.136,550.125L578.861,550.047L578.818,550.035L578.782,550.024L578.556,549.959L578.283,549.88L578.239,549.867L578.202,549.856L577.978,549.789L577.707,549.709L577.662,549.695L577.623,549.684L577.401,549.616L577.132,549.535L577.086,549.521L577.046,549.509L576.825,549.44L576.558,549.358L576.511,549.343L576.471,549.33L576.25,549.26L575.986,549.177L575.938,549.161L575.897,549.148L575.678,549.078L575.415,548.993L575.366,548.977L575.324,548.963L575.106,548.891L574.846,548.806L574.796,548.789L574.753,548.775L574.536,548.702L574.278,548.616L574.227,548.598L574.183,548.583L573.968,548.509L573.712,548.422L573.66,548.404L573.615,548.388L573.401,548.314L573.147,548.225L573.094,548.206L573.048,548.19L572.836,548.114L572.584,548.025L572.53,548.005L572.483,547.989L572.272,547.912L572.022,547.822L571.967,547.801L571.919,547.784L571.71,547.706L571.462,547.615L571.406,547.594L571.357,547.576L571.149,547.498L570.904,547.406L570.846,547.384L570.796,547.365L570.59,547.286L570.346,547.193L570.288,547.17L570.237,547.151L570.032,547.071L569.791,546.977L569.731,546.953L569.68,546.933L569.476,546.852L569.237,546.758L569.177,546.733L569.124,546.712L568.922,546.631L568.685,546.535L568.623,546.51L568.57,546.489L568.369,546.406L568.134,546.31L568.071,546.284L568.017,546.262L567.818,546.178L567.585,546.081L567.521,546.054L567.466,546.032L567.268,545.947L567.037,545.85L566.973,545.822L566.917,545.798L566.72,545.713L566.491,545.615L566.426,545.586L566.369,545.562L566.174,545.476L565.947,545.377L565.881,545.348L565.823,545.322L565.629,545.236L565.404,545.136L565.337,545.106L565.279,545.08L565.086,544.993L564.863,544.892L564.795,544.861L564.736,544.834L564.545,544.746L564.324,544.645L564.255,544.613L564.195,544.586L564.006,544.497L563.786,544.395L563.717,544.362L563.656,544.334L563.468,544.245L563.25,544.142L563.18,544.108L563.118,544.079L562.931,543.989L562.716,543.886L562.645,543.851L562.582,543.821L562.397,543.73L562.184,543.627L562.112,543.591L562.048,543.56L561.864,543.469L561.653,543.365L561.58,543.328L561.516,543.296L561.333,543.204L561.124,543.1L561.05,543.062L560.985,543.029L560.804,542.937L560.597,542.831L560.522,542.793L560.456,542.759L560.277,542.666L560.071,542.56L559.996,542.521L559.929,542.486L559.751,542.393L559.548,542.286L559.471,542.246L559.404,542.211L559.227,542.116L559.026,542.009L558.949,541.968L558.881,541.932L558.705,541.837L558.505,541.73L558.428,541.687L558.359,541.65L558.185,541.555L557.987,541.447L557.909,541.403L557.839,541.365L557.666,541.269L557.471,541.161L557.391,541.117L557.321,541.078L557.15,540.981L556.956,540.873L556.876,540.827L556.805,540.787L556.635,540.69L556.443,540.581L556.362,540.535L556.291,540.494L556.122,540.396L555.932,540.287L555.851,540.239L555.778,540.197L555.611,540.099L555.423,539.989L555.341,539.941L555.268,539.898L555.102,539.8L554.916,539.689L554.833,539.64L554.759,539.596L554.595,539.497L554.41,539.386L554.327,539.336L554.252,539.291L554.09,539.192L553.907,539.081L553.823,539.029L553.747,538.983L553.586,538.883L553.405,538.772L553.32,538.719L553.244,538.672L553.085,538.572L552.906,538.461L552.82,538.407L552.743,538.359L552.585,538.258L552.408,538.147L552.322,538.092L552.244,538.042L552.087,537.942L551.912,537.83L551.825,537.774L551.747,537.723L551.592,537.622L551.418,537.51L551.331,537.453L551.252,537.401L551.098,537.3L550.926,537.187L550.838,537.129L550.759,537.077L550.606,536.975L550.436,536.862L550.348,536.803L550.268,536.749L550.117,536.647L549.948,536.534L549.859,536.474L549.779,536.419L549.629,536.317L549.463,536.203L549.373,536.142L549.291,536.086L549.143,535.983L548.979,535.87L548.888,535.807L548.806,535.75L548.659,535.647L548.497,535.534L548.406,535.47L548.323,535.412L548.178,535.309L548.017,535.195L547.925,535.13L547.842,535.071L547.698,534.967L547.539,534.853L547.447,534.787L547.363,534.727L547.221,534.623L547.063,534.509L546.971,534.442L546.886,534.38L546.745,534.276L546.589,534.162L546.497,534.093L546.412,534.031L546.272,533.927L546.118,533.813L546.024,533.743L545.939,533.679L545.8,533.575L545.648,533.461L545.554,533.389L545.468,533.324L545.331,533.22L545.181,533.106L545.086,533.033L545,532.967L544.864,532.863L544.715,532.748L544.621,532.675L544.533,532.607L544.399,532.503L544.252,532.388L544.157,532.313L544.069,532.245L543.936,532.14L543.791,532.026L543.695,531.949L543.607,531.88L543.476,531.775L543.332,531.66L543.236,531.583L543.147,531.512L543.017,531.407L542.875,531.293L542.779,531.214L542.689,531.142L542.561,531.036L542.42,530.922L542.323,530.842L542.234,530.769L542.107,530.663L541.968,530.549L541.87,530.468L541.78,530.393L541.655,530.288L541.518,530.174L541.42,530.091L541.329,530.015L541.205,529.91L541.069,529.796L540.971,529.712L540.88,529.635L540.757,529.529L540.623,529.415L540.525,529.33L540.434,529.252L540.312,529.146L540.18,529.032L540.081,528.946L539.989,528.866L539.869,528.76L539.738,528.647L539.639,528.559L539.547,528.478L539.428,528.372L539.299,528.259L539.199,528.17L539.107,528.087L538.989,527.982L538.862,527.868L538.762,527.778L538.669,527.694L538.553,527.589L538.427,527.475L538.327,527.383L538.234,527.298L538.119,527.193L537.995,527.08L537.894,526.987L537.8,526.9L537.687,526.795L537.565,526.682L537.464,526.587L537.37,526.5L537.257,526.394L537.137,526.281L537.036,526.186L536.941,526.097L536.83,525.991L536.711,525.879L536.61,525.782L536.515,525.691L536.405,525.586L536.288,525.473L536.186,525.375L536.091,525.284L535.983,525.178L535.867,525.066L535.765,524.966L535.67,524.873L535.563,524.768L535.448,524.656L535.346,524.555L535.25,524.461L535.145,524.356L535.032,524.244L534.93,524.141L534.834,524.045L534.729,523.941L534.618,523.829L534.516,523.725L534.419,523.628L534.316,523.523L534.206,523.412L534.104,523.307L534.007,523.208L533.906,523.104L533.797,522.992L533.694,522.886L533.598,522.786L533.497,522.682L533.391,522.571L533.287,522.463L533.19,522.361L533.092,522.257L532.986,522.147L532.883,522.037L532.786,521.935L532.688,521.831L532.584,521.72L532.481,521.609L532.383,521.505L532.287,521.402L532.185,521.292L532.081,521.179L531.983,521.074L531.889,520.97L531.788,520.861L531.684,520.747L531.586,520.64L531.492,520.537L531.393,520.427L531.289,520.312L531.191,520.204L531.099,520.101L531.001,519.992L530.897,519.875L530.799,519.766L530.708,519.663L530.611,519.554L530.507,519.436L530.409,519.325L530.319,519.222L530.224,519.114L530.12,518.995L530.021,518.882L529.933,518.78L529.839,518.672L529.735,518.551L529.636,518.437L529.549,518.335L529.457,518.227L529.353,518.105L529.254,517.989L529.168,517.888L529.077,517.781L528.973,517.657L528.874,517.54L528.789,517.438L528.7,517.332L528.596,517.207L528.497,517.088L528.413,516.987L528.325,516.881L528.221,516.754L528.122,516.634L528.04,516.533L527.953,516.428L527.849,516.299L527.75,516.178L527.669,516.077L527.583,515.972L527.479,515.842L527.38,515.719L527.3,515.619L527.216,515.515L527.112,515.383L527.013,515.259L526.935,515.159L526.852,515.055L526.748,514.922L526.649,514.796L526.571,514.697L526.49,514.593L526.386,514.459L526.287,514.331L526.211,514.232L526.131,514.129L526.027,513.993L525.928,513.864L525.853,513.766L525.774,513.663L525.671,513.526L525.571,513.395L525.498,513.297L525.42,513.195L525.317,513.056L525.217,512.924L525.145,512.826L525.069,512.724L524.965,512.584L524.866,512.45L524.795,512.353L524.72,512.252L524.617,512.11L524.518,511.975L524.447,511.878L524.374,511.777L524.271,511.634L524.172,511.497L524.103,511.401L524.031,511.301L523.928,511.156L523.829,511.018L523.761,510.922L523.69,510.822L523.587,510.676L523.488,510.536L523.421,510.441L523.352,510.342L523.249,510.194L523.15,510.052L523.085,509.958L523.017,509.859L522.914,509.71L522.815,509.567L522.751,509.472L522.684,509.375L522.582,509.224L522.483,509.079L522.42,508.985L522.354,508.888L522.252,508.735L522.154,508.589L522.092,508.496L522.027,508.399L521.925,508.245L521.827,508.097L521.766,508.005L521.702,507.909L521.601,507.753L521.503,507.604L521.443,507.511L521.381,507.416L521.279,507.259L521.182,507.108L521.123,507.016L521.062,506.921L520.961,506.763L520.863,506.61L520.806,506.519L520.746,506.425L520.645,506.265L520.548,506.11L520.491,506.02L520.432,505.927L520.332,505.765L520.235,505.609L520.179,505.519L520.122,505.426L520.022,505.263L519.925,505.105L519.871,505.016L519.814,504.924L519.714,504.759L519.618,504.6L519.565,504.511L519.509,504.42L519.41,504.253L519.314,504.092L519.261,504.004L519.207,503.914L519.108,503.746L519.012,503.583L518.961,503.496L518.908,503.406L518.809,503.236L518.714,503.072L518.664,502.985L518.612,502.896L518.513,502.725L518.418,502.559L518.369,502.473L518.318,502.384L518.22,502.211L518.125,502.044L518.077,501.958L518.028,501.871L517.93,501.696L517.835,501.527L517.788,501.442L517.74,501.355L517.643,501.179L517.548,501.009L517.503,500.924L517.455,500.838L517.358,500.66L517.265,500.488L517.22,500.405L517.173,500.319L517.077,500.14L516.983,499.966L516.94,499.883L516.894,499.798L516.798,499.617L516.705,499.442L516.662,499.36L516.618,499.276L516.523,499.093L516.43,498.916L516.388,498.835L516.345,498.751L516.25,498.567L516.158,498.388L516.117,498.308L516.075,498.225L515.981,498.039L515.889,497.859L515.849,497.779L515.808,497.697L515.714,497.51L515.623,497.328L515.584,497.248L515.543,497.167L515.45,496.978L515.36,496.795L515.321,496.716L515.282,496.636L515.19,496.445L515.099,496.26L515.062,496.182L515.024,496.103L514.932,495.91L514.842,495.723L514.806,495.646L514.769,495.568L514.677,495.374L514.588,495.185L514.553,495.109L514.516,495.031L514.426,494.836L514.337,494.645L514.303,494.57L514.267,494.493L514.177,494.296L514.089,494.104L514.056,494.029L514.021,493.953L513.932,493.754L513.844,493.56L513.812,493.487L513.778,493.412L513.689,493.211L513.603,493.016L513.571,492.943L513.538,492.868L513.45,492.666L513.364,492.469L513.333,492.397L513.301,492.323L513.214,492.119L513.128,491.921L513.098,491.849L513.067,491.777L512.98,491.571L512.896,491.371L512.866,491.3L512.836,491.229L512.75,491.021L512.666,490.819L512.638,490.75L512.609,490.679L512.524,490.47L512.44,490.266L512.413,490.197L512.384,490.127L512.3,489.917L512.217,489.711L512.19,489.643L512.163,489.574L512.079,489.362L511.997,489.155L511.971,489.088L511.945,489.02L511.862,488.806L511.781,488.597L511.755,488.531L511.729,488.464L511.647,488.248L511.567,488.037L511.543,487.972L511.517,487.906L511.436,487.688L511.357,487.476L511.333,487.412L511.309,487.347L511.228,487.127L511.15,486.913L511.127,486.85L511.103,486.786L511.024,486.565L510.946,486.349L510.923,486.287L510.901,486.223L510.822,486.001L510.745,485.783L510.724,485.722L510.702,485.66L510.624,485.435L510.548,485.216L510.527,485.156L510.506,485.094L510.429,484.868L510.353,484.647L510.333,484.588L510.313,484.527L510.237,484.299L510.162,484.077L510.143,484.018L510.123,483.959L510.048,483.729L509.975,483.505L509.956,483.448L509.937,483.389L509.863,483.158L509.79,482.932L509.773,482.875L509.754,482.818L509.681,482.585L509.609,482.357L509.592,482.301L509.574,482.245L509.502,482.01L509.432,481.781L509.415,481.726L509.398,481.671L509.327,481.434L509.257,481.204L509.241,481.15L509.225,481.095L509.155,480.857L509.086,480.625L509.071,480.572L509.055,480.518L508.986,480.278L508.918,480.044L508.904,479.992L508.889,479.94L508.821,479.698L508.754,479.462L508.74,479.411L508.725,479.36L508.658,479.116L508.593,478.879L508.58,478.829L508.566,478.779L508.5,478.533L508.435,478.294L508.422,478.245L508.409,478.196L508.344,477.949L508.281,477.708L508.269,477.66L508.256,477.612L508.192,477.363L508.13,477.121L508.118,477.074L508.106,477.027L508.044,476.776L507.983,476.532L507.972,476.486L507.96,476.44L507.899,476.187L507.839,475.942L507.828,475.897L507.817,475.852L507.757,475.598L507.698,475.351L507.688,475.307L507.678,475.263L507.618,475.007L507.561,474.758L507.551,474.715L507.541,474.672L507.484,474.414L507.427,474.164L507.418,474.122L507.409,474.08L507.352,473.82L507.297,473.568L507.288,473.528L507.279,473.487L507.224,473.225L507.17,472.972L507.162,472.932L507.154,472.892L507.1,472.629L507.047,472.374L507.039,472.335L507.031,472.297L506.978,472.031L506.927,471.775L506.92,471.737L506.912,471.7L506.861,471.433L506.811,471.174L506.804,471.138L506.797,471.101L506.747,470.832L506.698,470.573L506.692,470.537L506.685,470.502L506.636,470.231L506.589,469.97L506.583,469.936L506.577,469.901L506.529,469.629L506.483,469.366L506.478,469.333L506.472,469.299L506.426,469.025L506.381,468.76L506.376,468.728L506.371,468.696L506.326,468.42L506.283,468.154L506.278,468.123L506.273,468.092L506.229,467.814L506.188,467.546L506.183,467.516L506.178,467.487L506.137,467.206L506.096,466.937L506.092,466.909L506.088,466.88L506.047,466.598L506.008,466.327L506.005,466.3L506.001,466.272L505.962,465.988L505.924,465.716L505.921,465.69L505.917,465.663L505.88,465.377L505.844,465.103L505.84,465.078L505.837,465.053L505.801,464.765L505.767,464.49L505.764,464.466L505.761,464.442L505.726,464.151L505.693,463.875L505.691,463.853L505.688,463.83L505.655,463.537L505.624,463.26L505.621,463.238L505.619,463.216L505.588,462.921L505.558,462.643L505.556,462.622L505.554,462.602L505.524,462.305L505.496,462.025L505.494,462.006L505.492,461.986L505.464,461.687L505.437,461.406L505.435,461.388L505.434,461.37L505.407,461.068L505.382,460.786L505.381,460.769L505.379,460.752L505.354,460.448L505.331,460.165L505.33,460.149L505.328,460.133L505.305,459.826L505.283,459.543L505.282,459.528L505.281,459.514L505.26,459.204L505.24,458.92L505.239,458.906L505.238,458.893L505.218,458.58L505.2,458.295L505.199,458.283L505.198,458.271L505.18,457.955L505.163,457.67L505.163,457.659L505.162,457.648L505.146,457.328L505.131,457.044L505.131,457.034L505.13,457.024L505.115,456.7L505.102,456.417L505.102,456.408L505.102,456.4L505.089,456.071L505.077,455.789L505.077,455.781L505.077,455.774L505.066,455.439L505.056,455.16L505.056,455.153L505.056,455.147L505.047,454.804L505.039,454.53L505.039,454.525L505.039,454.52L505.031,454.165L505.026,453.899L505.025,453.895L505.025,453.891L505.02,453.517L505.016,453.267L505.016,453.264L505.016,453.262L505.012,452.843L505.01,452.634L505.01,452.633C505.009,452.422 505.008,452.211 505.008,452C505.008,451.01 505.022,450.023 505.051,449.04C506.619,394.111 551.703,350 607.008,350L607.008,350ZM600.744,502.644L600.744,502.644L600.561,502.621L600.744,502.644ZM600.372,502.598L600.372,502.598L600,502.549L600.372,502.598Z" style="fill:rgb(90,213,195);"/>
        </g>
        <g transform="matrix(1,0,0,1,-5,10)">
            <path d="M602.876,553.895L601.228,553.826L600.512,553.772L603.754,503.106L600,502.676L600,502.549C601.98,502.816 603.994,502.969 606.035,503L607.608,503C608.114,502.992 608.622,502.977 609.131,502.954C637.194,501.702 658.974,477.946 657.813,449.9L657.922,449.895L657.999,451L708.787,451C709.242,488.818 688.821,522.342 658.008,540.251L658.008,554L607.008,554L602.876,553.895Z" style="fill:url(#_Linear2);"/>
        </g>
        <g transform="matrix(1,0,0,1,-5,10)">
            <rect x="658.008" y="445" width="51" height="40" style="fill:rgb(90,213,195);"/>
        </g>
        <g transform="matrix(1.0625,0,0,0.414948,317.258,486.041)">
            <rect x="316" y="218" width="48" height="194" style="fill:url(#_Linear3);"/>
        </g>
        <g transform="matrix(1.0625,0,0,1.22165,317.258,191.68)">
            <rect x="316" y="218" width="48" height="194" style="fill:rgb(90,213,195);"/>
        </g>
    </g>
    <g transform="matrix(0.752941,0,0,-0.752941,-219.465,745.059)">
        <g transform="matrix(1.0625,0,0,1.22165,317.258,191.68)">
            <rect x="316" y="218" width="48" height="194" style="fill:rgb(90,213,195);"/>
        </g>
        <g transform="matrix(1.0625,0,0,0.323293,317.258,463.85)">
            <rect x="316" y="218" width="48" height="194" style="fill:url(#_Linear4);"/>
        </g>
        <g transform="matrix(-1.06249,0.00455857,-0.00138706,-0.32329,1040.19,582.302)">
            <rect x="316" y="218" width="48" height="194" style="fill:url(#_Linear5);"/>
        </g>
        <g transform="matrix(6.50594e-17,1.0625,-0.757746,4.63985e-17,912.197,177.25)">
            <rect x="316" y="218" width="48" height="194" style="fill:rgb(90,213,195);"/>
        </g>
        <g transform="matrix(1,0,0,1,340.008,234)">
            <path d="M262,330C205.705,330 160,284.295 160,228C160,171.705 205.705,126 262,126C317.962,126 363.458,171.165 363.995,227L312.99,227C312.457,199.313 289.814,177 262,177C233.852,177 211,199.852 211,228C211,256.147 233.852,279 262,279L262,330Z" style="fill:rgb(90,213,195);"/>
        </g>
    </g>
    <defs>
        <linearGradient id="_Linear1" x1="0" y1="0" x2="1" y2="0" gradientUnits="userSpaceOnUse" gradientTransform="matrix(-14.5959,111.715,-55.8235,-29.2096,340,230.596)"><stop offset="0" style="stop-color:rgb(65,140,255);stop-opacity:1"/><stop offset="1" style="stop-color:rgb(0,81,205);stop-opacity:1"/></linearGradient>
        <linearGradient id="_Linear2" x1="0" y1="0" x2="1" y2="0" gradientUnits="userSpaceOnUse" gradientTransform="matrix(85,-1.5099e-13,1.5099e-13,85,595.305,526.688)"><stop offset="0" style="stop-color:rgb(90,213,195);stop-opacity:1"/><stop offset="1" style="stop-color:rgb(57,132,249);stop-opacity:1"/></linearGradient>
        <linearGradient id="_Linear3" x1="0" y1="0" x2="1" y2="0" gradientUnits="userSpaceOnUse" gradientTransform="matrix(-6.10996,198.82,-77.6471,-15.6449,346.11,218)"><stop offset="0" style="stop-color:rgb(65,140,255);stop-opacity:1"/><stop offset="1" style="stop-color:rgb(0,81,205);stop-opacity:1"/></linearGradient>
        <linearGradient id="_Linear4" x1="0" y1="0" x2="1" y2="0" gradientUnits="userSpaceOnUse" gradientTransform="matrix(1.90451e-15,102.22,31.1029,-6.25915e-15,340,309.78)"><stop offset="0" style="stop-color:rgb(0,31,79);stop-opacity:0.138294"/><stop offset="1" style="stop-color:rgb(90,213,195);stop-opacity:0.138294"/></linearGradient>
        <linearGradient id="_Linear5" x1="0" y1="0" x2="1" y2="0" gradientUnits="userSpaceOnUse" gradientTransform="matrix(-0.207895,159.248,48.4552,0.683246,340.127,217.663)"><stop offset="0" style="stop-color:rgb(0,31,79);stop-opacity:0.138294"/><stop offset="1" style="stop-color:rgb(90,213,195);stop-opacity:0.138294"/></linearGradient>
    </defs>
</svg>
